<?xml version="1.0" encoding="utf-8"?>
<!-- Generator: Adobe Illustrator 16.0.0, SVG Export Plug-In . SVG Version: 6.00 Build 0)  -->
<!DOCTYPE svg PUBLIC "-//W3C//DTD SVG 1.1//EN" "http://www.w3.org/Graphics/SVG/1.1/DTD/svg11.dtd">
<svg version="1.1" id="Layer_1" xmlns="http://www.w3.org/2000/svg" xmlns:xlink="http://www.w3.org/1999/xlink" x="0px" y="0px"
	 width="360px" height="80px" viewBox="0 0 360 80" enable-background="new 0 0 360 80" xml:space="preserve">
<g>
	<g>
		<path fill="#CFD8DC" d="M65.411,4.723H13.996c-5.258,0-9.521,4.264-9.521,9.522v60.931l9.521,0.006h51.415
			c5.257,0,9.521-4.265,9.521-9.522V4.717L65.411,4.723z M71.917,63.458c0,4.812-3.897,8.707-8.706,8.707H16.195l-8.707-0.006
			V16.443c0-4.81,3.898-8.707,8.707-8.707h47.016l8.706-0.006V63.458z"/>
	</g>
</g>
<g>
	<text transform="matrix(0.9699 0 0 1 32.6011 19.6104)" fill="#404040" font-family="'Folks-Normal'" font-size="7.9082">SMS</text>
</g>
<g>
	<path fill="#00BEDE" d="M27.273,30.48c-1.646,0-2.986,1.34-2.986,2.987v28.665c0,1.646,1.34,2.986,2.986,2.986h15.133
		c1.646,0,2.986-1.34,2.986-2.986V38.256l-2.289,2.491c-0.164,0.179-0.352,0.331-0.549,0.466V59.02H27.127V33.468
		c0-0.081,0.064-0.147,0.146-0.147h6.439c-0.033-0.216-0.062-0.433-0.062-0.656V30.48H27.273L27.273,30.48z M34.842,60.401
		c0.908,0,1.646,0.738,1.646,1.649c0,0.909-0.738,1.649-1.646,1.649c-0.912,0-1.65-0.74-1.65-1.649
		C33.191,61.14,33.93,60.401,34.842,60.401L34.842,60.401z M34.842,60.401"/>
	<path opacity="0.5" fill="#00BEDE" d="M45.164,34.309h8.312c0.906,0,1.643-0.735,1.643-1.645v-7.623
		c0-0.908-0.736-1.645-1.643-1.645H38.133c-0.908,0-1.645,0.736-1.645,1.645v7.623c0,0.909,0.736,1.645,1.645,1.645h2.348v4.309
		c0,0.127,0.078,0.241,0.195,0.286c0.037,0.015,0.074,0.021,0.111,0.021c0.086,0,0.168-0.034,0.227-0.1L45.164,34.309z
		 M51.83,26.886c0.33,0,0.6,0.27,0.6,0.601c0,0.332-0.27,0.601-0.6,0.601H48.02c-0.33,0-0.6-0.269-0.6-0.601
		c0-0.331,0.27-0.601,0.6-0.601H51.83L51.83,26.886z M52.43,30.122c0,0.331-0.27,0.6-0.6,0.6h-7.555c-0.332,0-0.602-0.269-0.602-0.6
		s0.27-0.601,0.602-0.601h7.555C52.16,29.521,52.43,29.791,52.43,30.122L52.43,30.122z M52.43,30.122"/>
</g>
</svg>
